<?xml version="1.0" encoding="UTF-8" standalone="no"?>
<!-- Created with Inkscape (http://www.inkscape.org/) -->

<svg
   xmlns:dc="http://purl.org/dc/elements/1.1/"
   xmlns:cc="http://creativecommons.org/ns#"
   xmlns:rdf="http://www.w3.org/1999/02/22-rdf-syntax-ns#"
   xmlns:svg="http://www.w3.org/2000/svg"
   xmlns="http://www.w3.org/2000/svg"
   xmlns:sodipodi="http://sodipodi.sourceforge.net/DTD/sodipodi-0.dtd"
   xmlns:inkscape="http://www.inkscape.org/namespaces/inkscape"
   width="210mm"
   height="297mm"
   viewBox="0 0 210 297"
   version="1.1"
   id="svg8"
   inkscape:version="0.92.2 (5c3e80d, 2017-08-06)"
   sodipodi:docname="Logo SVG.svg">
  <defs
     id="defs2">
    <inkscape:perspective
       sodipodi:type="inkscape:persp3d"
       inkscape:vp_x="0 : 148.5 : 1"
       inkscape:vp_y="0 : 1000 : 0"
       inkscape:vp_z="210 : 148.5 : 1"
       inkscape:persp3d-origin="105 : 99 : 1"
       id="perspective3703" />
  </defs>
  <sodipodi:namedview
     id="base"
     pagecolor="#ffffff"
     bordercolor="#666666"
     borderopacity="1.0"
     inkscape:pageopacity="0.0"
     inkscape:pageshadow="2"
     inkscape:zoom="0.35"
     inkscape:cx="400"
     inkscape:cy="560"
     inkscape:document-units="mm"
     inkscape:current-layer="layer1"
     showgrid="false"
     inkscape:window-width="1366"
     inkscape:window-height="705"
     inkscape:window-x="-8"
     inkscape:window-y="-8"
     inkscape:window-maximized="1" />
  <metadata
     id="metadata5">
    <rdf:RDF>
      <cc:Work
         rdf:about="">
        <dc:format>image/svg+xml</dc:format>
        <dc:type
           rdf:resource="http://purl.org/dc/dcmitype/StillImage" />
        <dc:title></dc:title>
      </cc:Work>
    </rdf:RDF>
  </metadata>
  <g
     inkscape:label="Capa 1"
     inkscape:groupmode="layer"
     id="layer1">
    <g
       sodipodi:type="inkscape:box3d"
       id="g3705"
       inkscape:perspectiveID="#perspective3703"
       inkscape:corner0="2.2301778 : 0.11923724 : 0 : 1"
       inkscape:corner7="-0.42366124 : -0.020837342 : 0.25 : 1">
      <path
         sodipodi:type="inkscape:box3dside"
         id="path3707"
         style="fill:#353564;fill-rule:evenodd;stroke:none;stroke-linejoin:round"
         inkscape:box3dsidetype="6"
         d="m 32.505951,126.91072 v 43.36435 l 12.750358,-1.56422 v -40.24926 z"
         points="32.505951,170.27507 45.256309,168.71085 45.256309,128.46159 32.505951,126.91072 " />
      <path
         sodipodi:type="inkscape:box3dside"
         id="path3715"
         style="fill:#afafde;fill-rule:evenodd;stroke:none;stroke-linejoin:round"
         inkscape:box3dsidetype="13"
         d="M 32.505951,170.27507 182.18452,270.54167 190.5998,233.61926 45.256309,168.71085 Z"
         points="182.18452,270.54167 190.5998,233.61926 45.256309,168.71085 32.505951,170.27507 " />
      <path
         sodipodi:type="inkscape:box3dside"
         id="path3717"
         style="fill:#e9e9ff;fill-rule:evenodd;stroke:none;stroke-linejoin:round"
         inkscape:box3dsidetype="11"
         d="M 45.256309,128.46159 190.5998,64.106967 V 233.61926 L 45.256309,168.71085 Z"
         points="190.5998,64.106967 190.5998,233.61926 45.256309,168.71085 45.256309,128.46159 " />
      <path
         sodipodi:type="inkscape:box3dside"
         id="path3709"
         style="fill:#4d4d9f;fill-rule:evenodd;stroke:none;stroke-linejoin:round"
         inkscape:box3dsidetype="5"
         d="M 32.505951,126.91072 182.18452,27.499574 190.5998,64.106967 45.256309,128.46159 Z"
         points="182.18452,27.499574 190.5998,64.106967 45.256309,128.46159 32.505951,126.91072 " />
      <path
         sodipodi:type="inkscape:box3dside"
         id="path3713"
         style="fill:#d7d7ff;fill-rule:evenodd;stroke:none;stroke-linejoin:round"
         inkscape:box3dsidetype="14"
         d="M 182.18452,27.499574 V 270.54167 l 8.41528,-36.92241 V 64.106967 Z"
         points="182.18452,270.54167 190.5998,233.61926 190.5998,64.106967 182.18452,27.499574 " />
      <path
         sodipodi:type="inkscape:box3dside"
         id="path3711"
         style="fill:#00ff00;fill-rule:evenodd;stroke:none;stroke-linejoin:round"
         inkscape:box3dsidetype="3"
         d="M 32.505951,126.91072 182.18452,27.499574 V 270.54167 L 32.505951,170.27507 Z"
         points="182.18452,27.499574 182.18452,270.54167 32.505951,170.27507 32.505951,126.91072 " />
    </g>
    <path
       style="fill:#0000ff;stroke-width:0.26458332"
       id="path3721"
       d="m 36.736972,167.23442 c 0.974262,-1.96936 1.781252,-4.01201 2.754215,-5.9827 0.84919,-1.66857 1.738669,-3.31065 2.377122,-5.07373 0.771636,-2.13965 1.07678,-4.39739 1.563807,-6.60872 0.3752,-1.78648 0.615918,-3.59197 1.063574,-5.36338 0.573424,-1.79938 0.87893,-3.65691 1.061734,-5.53117 0.07462,-1.85026 0.455522,-3.6662 0.655357,-5.50382 0.378602,-2.0637 0.589491,-4.15093 0.894074,-6.22478 0.600954,-4.70684 6.889269,-11.39323 11.725095,-8.33633 1.027742,0.65387 1.595946,1.79662 2.221064,2.80831 0.83258,1.09116 1.725059,2.13309 2.519195,3.2591 0.703091,1.25269 1.166593,2.63021 1.500013,4.02352 0.58283,1.77301 0.796962,3.62524 0.970457,5.47476 0.144323,1.71483 0.168254,3.4362 0.18051,5.15603 0.01635,1.7117 -0.01651,3.42317 -0.02384,5.13479 -0.09146,1.75204 0.04744,3.46879 0.315462,5.19623 0.304798,2.24215 0.332584,4.51008 0.393002,6.7687 0.187658,4.4191 2.326166,0.0535 -9.502296,5.88883 -0.195641,0.0965 0.36317,-0.24513 0.522303,-0.39436 0.207622,-0.19469 0.382117,-0.42194 0.573175,-0.63292 1.119042,-1.33606 1.857637,-2.94835 2.411087,-4.58862 0.684575,-2.39707 0.988039,-4.87555 1.445834,-7.32056 0.323176,-1.88972 0.541285,-3.78427 1.034503,-5.63989 0.93931,-2.99987 2.068586,-5.93089 3.321801,-8.81204 1.254956,-2.74034 2.734485,-5.36933 4.202599,-7.99911 1.350653,-2.40646 1.932385,-5.13238 2.55397,-7.79451 0.348533,-2.61584 1.235671,-5.06704 2.167038,-7.51552 0.565661,-1.46134 1.326087,-2.83894 2.217463,-4.12468 2.305404,-3.63471 10.30079,-10.567382 11.737752,-5.03933 0.280541,1.76925 -0.140459,3.54238 -0.360418,5.29627 -0.226825,1.95052 -0.214262,3.91354 -0.506365,5.85601 -0.258762,1.85324 -0.612388,3.69025 -0.892138,5.5399 -0.306684,2.27736 -0.401304,4.57398 -0.446786,6.86897 -0.01328,1.85504 -0.02045,3.70985 -0.03968,5.56484 -0.05833,2.81173 -0.03099,5.62384 -0.0026,8.43569 0.02622,2.20547 0.01206,4.41111 -5.29e-4,6.61662 0.07945,2.6696 -0.07551,5.3193 -0.324265,7.97485 -0.197239,1.95259 -0.309952,3.9115 -0.365625,5.87278 -0.03423,1.52969 -0.03133,3.05988 -0.0306,4.58986 -0.01683,1.71354 -0.0068,3.42722 -0.0021,5.1408 0.0044,1.557 0.0057,3.114 0.0065,4.67099 5.29e-4,1.51161 5.29e-4,3.02322 5.29e-4,4.53482 -3.4e-5,1.51118 -5.8e-5,3.02236 -7.4e-5,4.53354 0.03445,1.13806 -0.203917,2.51654 0.602308,3.44304 0.904317,0.8978 2.173819,1.04303 3.382047,1.16882 0.240538,0.015 0.480936,0.0576 0.721609,0.045 0.532297,-0.0279 0.847175,-0.13683 1.296194,-0.41103 0.199556,-0.12186 0.767625,-0.53183 0.563591,-0.41763 -8.917482,4.99131 -11.581381,7.5124 -8.541517,4.71056 0.865516,-0.97187 1.383345,-2.16358 2.111494,-3.22986 0.794031,-0.99778 1.423591,-1.98467 1.738053,-3.22702 0.03583,-0.21871 0.07166,-0.43742 0.107495,-0.65613 0,0 10.046843,-4.9583 10.046843,-4.9583 v 0 c -0.02328,0.241 -0.04658,0.48199 -0.06987,0.72299 -0.20346,1.34288 -0.523886,2.6478 -1.560516,3.60666 -0.322175,0.53492 -0.775816,1.00569 -1.058904,1.55986 -0.312505,0.61176 -0.480957,1.28808 -1.015223,1.77325 -2.37518,4.01969 -0.32349,0.78589 -10.49193,6.70873 -0.891143,0.51907 -2.040437,0.32525 -3.000084,0.22276 -1.466717,-0.2702 -2.871536,-0.70742 -3.88393,-1.87459 -0.875191,-1.22616 -0.99619,-2.6272 -0.919741,-4.10609 -1.1e-5,-1.51116 -3.2e-5,-3.02233 -4.8e-5,-4.53349 0,-1.51175 -4e-5,-3.0235 5.29e-4,-4.53525 7.94e-4,-1.55877 0.0019,-3.11754 0.0051,-4.67631 0.003,-1.71138 0.01011,-3.42286 -0.01053,-5.13416 -0.0013,-1.54205 -0.0053,-3.08432 0.02912,-4.62608 0.05858,-1.99903 0.184401,-3.99495 0.411686,-5.98255 0.272063,-2.61996 0.494072,-5.23263 0.360479,-7.87081 -0.01265,-2.20495 -0.02662,-4.41003 -0.0019,-6.61495 0.02611,-2.809 0.05123,-5.6183 -0.01307,-8.42705 -0.02294,-1.86024 -0.04386,-3.72049 0.01048,-5.58057 0.06366,-2.33594 0.15321,-4.67375 0.431043,-6.99581 0.212529,-1.85726 0.531204,-3.6938 0.810636,-5.54142 0.355079,-1.92859 0.408207,-3.87003 0.573754,-5.82315 0.164378,-1.63977 0.541041,-3.27769 0.423304,-4.92641 -0.542067,-4.19292 -3.321367,1.36275 9.610506,-5.83749 0.108103,-0.0602 -0.252529,0.0422 -0.353232,0.11405 -0.304131,0.21709 -0.61485,0.75315 -0.802228,1.03306 -0.991195,1.16703 -1.705911,2.50052 -2.409748,3.85596 -0.924811,2.43016 -2.043036,4.7864 -2.318279,7.41314 -0.594561,2.73404 -1.139894,5.54094 -2.367005,8.07273 -1.529252,2.5943 -2.98891,5.23094 -4.329477,7.92839 -1.254292,2.80602 -2.398282,5.65039 -3.246903,8.60915 -0.559237,1.8249 -0.820627,3.68978 -1.117873,5.57126 -0.484793,2.45671 -0.841513,4.93448 -1.383961,7.38024 -0.373253,1.79643 -1.197888,3.47631 -2.181778,5.02103 -0.173842,0.22208 -0.356235,0.43774 -0.521526,0.66625 -0.138506,0.19149 -0.18266,0.47763 -0.389085,0.59269 -4.17153,2.32524 -10.99879,9.41736 -10.858357,3.3077 -0.03106,-2.20492 -0.07363,-4.41754 -0.384141,-6.60436 -0.280829,-1.78719 -0.499036,-3.54994 -0.364006,-5.36723 -0.0035,-1.70361 -0.02756,-3.40711 -0.01198,-5.11076 2.64e-4,-1.69811 0.0013,-3.39768 -0.104331,-5.09326 -0.13644,-1.80086 -0.324416,-3.60387 -0.942012,-5.31467 -0.269605,-1.26196 -0.692163,-2.49378 -1.301416,-3.63264 -0.80486,-1.14156 -1.700586,-2.20208 -2.548636,-3.30796 -0.491678,-0.76214 -0.913149,-1.80236 -1.826959,-2.10201 -3.13128,2.05054 -2.5811,1.6855 9.020294,-5.27594 0.164153,-0.0985 -0.387046,0.0816 -0.539144,0.19789 -0.640728,0.48972 -0.734396,1.46513 -0.892747,2.17221 -0.408482,2.03076 -0.46098,4.12198 -0.920821,6.14821 -0.166595,1.83918 -0.543891,3.6451 -0.665308,5.48413 -0.120946,1.93927 -0.418666,3.85977 -0.963631,5.72871 -0.553934,1.73584 -0.729414,3.54009 -1.103879,5.31783 -0.527775,2.22849 -0.85834,4.49868 -1.524082,6.69299 -0.517631,1.8585 -1.392301,3.54878 -2.295403,5.246 -1.045498,1.91075 -1.912723,3.90012 -2.689812,5.93427 0,0 -10.223368,4.62537 -10.223368,4.62537 z"
       inkscape:connector-curvature="0" />
    <path
       style="fill:#0000ff;stroke-width:0.26458332"
       id="path3723"
       d="m 116.53844,89.385549 c -1.31065,0.02133 -2.74418,-0.163007 -4.02011,0.252018 -0.27416,0.08918 -1.00947,0.557472 -0.75856,0.415489 2.95198,-1.670413 5.90789,-3.33388 8.86184,-5.000818 -1.27046,0.674042 -2.21437,1.698969 -3.0012,2.879989 -0.65477,1.158613 -1.11913,2.409918 -1.62396,3.638251 -0.48307,1.269291 -0.5594,2.629591 -0.61901,3.971671 0.003,1.536121 -0.35024,3.039065 -0.54861,4.555841 -0.22947,1.42765 -0.0662,2.44902 0.73108,3.62723 0.80669,0.89382 2.03885,0.91073 3.16053,0.97929 1.84742,0.0789 3.69718,0.0565 5.54567,0.0437 1.67917,-0.16683 3.21654,0.20398 4.7625,0.805 1.13447,0.70879 2.16157,1.52372 3.35487,2.14146 1.40253,0.73616 2.53854,1.73681 3.46249,3.00961 1.06662,1.37802 1.69906,3.02047 2.4133,4.59537 0.70445,1.8503 1.34017,3.71381 1.72295,5.65817 0.24135,1.95637 0.37543,3.91955 0.61276,5.8789 0.21951,2.28892 0.34474,4.5851 0.41867,6.88288 0.0498,1.78572 0.0352,3.57238 0.0385,5.35861 -0.0488,2.38608 -0.0315,4.77252 -0.0331,7.15885 0.0419,1.95495 0.092,3.8892 -0.32631,5.80712 -0.41249,1.71992 -1.3443,3.13699 -2.51097,4.43211 -4.44474,3.84373 -9.74979,6.63905 -15.31624,8.44587 -2.26778,0.54029 -4.50626,1.28522 -6.63368,2.24086 -1.86301,0.83057 -3.85916,1.38169 -5.62157,2.41983 -8.6273,4.61488 32.18761,-18.20167 -2.29352,1.28052 -2.95604,1.6702 11.80434,-6.71472 8.82814,-5.08071 -13.95645,7.66247 -6.47478,4.06039 -11.13692,6.28947 -2.1015,0.63344 -4.24633,1.22972 -6.42653,0.74249 -1.668322,-0.34376 -2.615525,-1.65419 -3.491071,-3.00173 -0.837835,-1.41673 -1.088324,-3.02319 -1.230344,-4.63442 -0.269428,-1.83856 -0.513543,-3.67516 -0.658694,-5.52855 -0.120753,-1.72665 -0.154408,-3.45786 -0.151027,-5.18823 -0.004,-1.81998 -0.0037,-3.63979 0.0141,-5.45968 0.0033,-1.79946 0.549277,-3.4594 1.42241,-5.00816 2.794305,-4.05574 7.679586,-6.92227 12.580626,-7.46258 1.66792,-0.15165 3.31015,-0.51198 4.98467,-0.67373 1.71483,-0.27538 3.27918,0.14037 4.78492,0.95102 1.2603,0.79181 1.88121,1.91953 2.53049,3.19483 0.7118,1.32162 0.84065,2.80091 0.94933,4.26915 0.0934,1.62325 0.0927,3.24986 0.0945,4.8752 0.0461,1.05618 -0.0258,2.0974 -0.18012,3.14109 0,0 -10.05208,4.91473 -10.05208,4.91473 v 0 c 0.18462,-0.99188 0.34963,-1.96188 0.26386,-2.97778 0.004,-1.60402 0.0166,-3.20898 -0.0514,-4.81197 -0.0789,-1.31737 -0.14968,-2.65857 -0.77495,-3.85197 -0.53582,-1.06383 -0.99228,-2.01063 -2.12196,-2.58697 -1.4433,-0.60136 -2.8662,-0.71825 -4.41174,-0.44746 -1.65962,0.21035 -3.30323,0.52231 -4.957273,0.76923 -3.535635,1.03428 -9.487646,5.41322 7.938983,-4.88961 0.16008,-0.0946 -0.34504,0.14464 -0.50002,0.24742 -0.42977,0.28504 -0.49293,0.45808 -0.79299,0.87706 -1.0922,1.2054 -1.65334,2.80421 -1.78092,4.41384 0.0148,1.81402 0.007,3.6279 0.009,5.44196 0.0168,1.70985 0.007,3.4209 0.10217,5.1289 0.11873,1.84945 0.33143,3.68696 0.69086,5.50662 0.0887,1.42761 0.2243,2.87338 0.95621,4.13837 0.7615,1.14116 1.52002,2.07104 2.96792,2.22555 2.06743,0.14324 4.12756,-0.45536 6.00615,-1.28367 0.27574,-0.14287 1.09527,-0.5855 0.82724,-0.42863 -2.93699,1.71897 -11.80362,6.77938 -8.83509,5.11548 3.45757,-1.938 6.84719,-3.99549 10.30231,-5.93787 2.71505,-1.52633 -29.265243,16.87581 1.50528,-0.84014 0.25683,-0.14684 0.52518,-0.27254 0.78777,-0.40882 1.85314,-0.83651 3.76724,-1.5255 5.63898,-2.31854 2.18928,-0.85423 4.42872,-1.55943 6.69173,-2.19084 0.65867,-0.23672 1.50231,-0.52899 2.14308,-0.80461 0.34931,-0.15026 1.35769,-0.68254 1.03178,-0.48664 -15.18839,9.12931 -10.13608,6.11331 -6.96118,3.93143 1.2538,-1.0493 2.25859,-2.30606 2.72958,-3.8952 0.67481,-1.78216 0.53581,-3.68434 0.54054,-5.5608 -9e-5,-2.37675 0.0198,-4.75358 -0.0244,-7.13014 0.006,-1.78101 0.002,-3.56194 -0.0115,-5.34291 -0.0302,-2.26997 -0.0895,-4.54307 -0.34203,-6.80108 -0.2305,-1.93235 -0.48797,-3.85552 -0.62492,-5.79676 -0.31,-1.87265 -0.88876,-3.6591 -1.57668,-5.42651 -0.67713,-1.50183 -1.31591,-3.05956 -2.33744,-4.36463 -0.85114,-1.12469 -1.92479,-1.97428 -3.19617,-2.6019 -1.11591,-0.63555 -2.12745,-1.42603 -3.27539,-1.99773 -1.46131,-0.50505 -2.96047,-0.57423 -4.49951,-0.50339 -1.87697,-5.3e-4 -3.75851,0.0223 -5.63107,-0.12236 -1.44967,-0.19285 -2.80951,-0.55887 -3.72751,-1.79233 -0.87007,-1.32339 -1.30973,-2.73296 -1.08037,-4.33882 0.16314,-1.49652 0.52569,-2.96851 0.58612,-4.46848 0.0353,-1.435722 0.0737,-2.887314 0.44849,-4.282964 0.42149,-1.29599 1.02252,-2.531409 1.55625,-3.781952 0.59291,-1.364675 1.58285,-2.609133 2.81443,-3.447031 8.71059,-4.970671 8.24192,-6.33799 15.40892,-6.285852 0,0 -9.07383,6.592528 -9.07383,6.592528 z"
       inkscape:connector-curvature="0" />
    <path
       style="fill:#0000ff;stroke-width:0.26458332"
       id="path3725"
       d="m 104.12879,211.75918 c 1.68168,-1.47942 3.51008,-2.7783 5.26347,-4.16936 1.66044,-1.35437 2.91671,-3.10399 4.19585,-4.80297 1.22886,-1.76651 2.51112,-3.49173 3.92083,-5.11894 1.30382,-1.41972 2.70169,-2.74568 4.00004,-4.17054 1.29746,-1.27327 2.27058,-2.68796 2.95997,-4.36216 0.896,-2.30071 1.65182,-4.65205 2.48741,-6.97486 0.63487,-1.81112 1.65669,-3.44471 2.48053,-5.16873 0.81152,-2.00765 1.32293,-4.1174 2.0213,-6.16298 0.85872,-2.18439 2.08051,-4.18924 3.34521,-6.15639 2.57821,-3.88362 10.4983,-11.3145 12.10934,-5.26797 0.23988,1.86431 0.19962,3.75063 0.19741,5.62631 0.004,1.8305 -0.009,3.66091 -0.0154,5.49136 -0.007,2.14646 -0.0297,4.29264 -0.0217,6.43915 0.0111,1.81792 0.0222,3.63584 0.0279,5.45379 0.004,1.52544 0.004,3.05088 0.004,4.57632 -0.0935,1.45952 0.0603,2.87917 0.29827,4.3142 0.22403,1.77407 0.67277,3.5062 0.93693,5.27479 0.26596,1.57645 0.7426,3.09881 1.16946,4.63508 0.56272,1.49317 0.96026,3.02254 1.18614,4.60039 0.18077,1.52463 0.189,3.06207 0.19829,4.59517 -0.10929,1.50968 0.18445,2.98235 0.41038,4.46506 0.0781,1.83657 0.56785,3.53564 1.21671,5.24072 0.52493,1.61676 1.33601,3.132 2.25599,4.55678 0.86035,1.2261 1.47758,2.51379 1.80695,3.97374 0.31232,1.28188 0.78431,2.53205 1.40901,3.69468 0.46152,0.93653 1.0203,1.75773 2.02081,2.12702 1.11965,0.61715 2.23919,1.24329 3.39852,1.78651 1.32006,0.64162 2.50782,1.50317 3.91661,1.94401 0.53782,0.14955 1.17612,0.17953 1.71253,-0.0287 0.15758,-0.0612 0.57302,-0.3584 0.4255,-0.27588 -9.17288,5.13106 -12.14065,7.30266 -8.84861,4.91998 0.86527,-0.66031 1.48004,-1.50824 1.9031,-2.50031 0.77248,-1.6394 0.87739,-3.49488 0.99774,-5.27748 0.0637,-1.11514 0.0739,-2.23218 0.0823,-3.34877 0,0 9.9676,-5.06922 9.9676,-5.06922 v 0 c -0.009,1.13876 -0.0195,2.27786 -0.0772,3.41545 -0.11122,1.89502 -0.25552,3.80726 -0.74119,5.64881 -0.30745,0.5313 -0.40402,1.10086 -0.69958,1.63621 -0.43353,0.78527 -0.16048,0.17561 -0.69657,0.81948 -0.12144,0.14586 -0.20746,0.31789 -0.31119,0.47684 -3.54204,3.27574 -8.16502,7.45779 -13.00755,5.84561 -1.37569,-0.57859 -2.60993,-1.4222 -3.96797,-2.04193 -1.15285,-0.578 -2.30276,-1.16241 -3.43551,-1.77914 -1.07508,-0.65055 -1.8373,-1.58648 -2.3778,-2.72218 -0.6625,-1.26053 -1.17278,-2.60486 -1.52629,-3.98426 -0.27117,-1.34802 -0.85044,-2.49578 -1.63355,-3.62433 -0.91952,-1.51013 -1.7668,-3.09089 -2.30128,-4.78153 -0.6738,-1.76417 -1.34835,-3.50969 -1.38418,-5.42615 -0.21903,-1.53205 -0.60031,-3.04734 -0.48539,-4.60607 -0.003,-1.49086 0.002,-2.98481 -0.13276,-4.471 -0.17872,-1.53712 -0.52691,-3.03062 -1.11001,-4.46934 -0.4194,-1.58746 -0.9335,-3.14538 -1.22639,-4.76563 -0.2252,-1.76487 -0.65796,-3.48418 -0.93599,-5.23803 -0.25641,-1.49204 -0.51986,-2.95434 -0.38641,-4.47933 1.8e-4,-1.52691 2.7e-4,-3.05381 0.004,-4.58071 0.006,-1.82746 0.0165,-3.65488 0.0278,-5.48231 0.008,-2.14143 -0.0146,-4.28259 -0.0136,-6.42398 0.002,-1.83236 0.007,-3.66458 0.0277,-5.49687 0.004,-1.78744 0.0335,-3.5826 -0.14878,-5.36285 -0.46284,-2.65436 0.64331,-0.6959 9.12648,-5.64805 0.1966,-0.11477 -0.38518,0.24825 -0.54869,0.40663 -0.23088,0.22363 -0.41816,0.48827 -0.62724,0.7324 -1.29429,1.88951 -2.4724,3.85697 -3.45845,5.92424 -0.80116,2.00952 -1.24369,4.14453 -1.92686,6.19753 -0.72829,1.771 -1.81562,3.35635 -2.55997,5.12088 -0.85048,2.32225 -1.66706,4.6542 -2.48044,6.99015 -0.69498,1.98651 -1.24809,3.2237 -2.73819,4.75371 -1.36786,1.35163 -2.61508,2.82965 -4.02638,4.14483 -1.47753,1.56745 -2.80022,3.24583 -4.00597,5.02742 -1.24508,1.77025 -2.53137,3.53794 -4.07079,5.06495 -1.69495,1.40169 -3.46528,2.71295 -5.22383,4.02707 0,0 -10.36096,4.29166 -10.36096,4.29166 z"
       inkscape:connector-curvature="0" />
    <path
       style="fill:#0000ff;stroke-width:0.26458332"
       id="path3727"
       d="m 126.12227,196.94183 c 2.28172,0.0538 4.56433,0.0354 6.84643,0.0253 1.69604,-0.15553 3.30678,0.08 4.95816,0.40655 1.4137,0.10713 2.76567,0.4652 4.15052,0.74102 1.39395,0.095 2.6839,0.61924 4.0489,0.87123 0.86888,0.11351 0.43013,0.0652 1.31635,0.14396 0,0 -9.13972,6.48168 -9.13972,6.48168 v 0 c -0.93016,-0.13042 -0.46936,-0.0545 -1.38252,-0.22705 -1.33997,-0.31987 -2.65921,-0.7084 -4.03189,-0.87647 -1.37822,-0.29662 -2.76476,-0.49225 -4.15508,-0.72094 -1.57969,-0.30168 -3.16228,-0.31271 -4.76882,-0.27812 -2.30535,-0.0103 -4.61117,-0.0275 -6.91617,0.0253 0,0 9.07384,-6.59253 9.07384,-6.59253 z"
       inkscape:connector-curvature="0" />
    <path
       style="fill:#ffff00;stroke-width:0.26458332"
       id="path3729"
       d="m 160.43141,57.789643 c -0.3142,0.03317 -0.63099,0.04732 -0.94259,0.09951 -0.66705,0.111718 -1.54826,0.344299 -2.1707,0.601443 -0.33694,0.139194 -1.29208,0.67519 -0.97587,0.493765 9.76252,-5.601216 11.44941,-6.740408 7.99723,-4.458425 -1.11666,0.802939 -2.0967,1.763644 -2.82687,2.930208 -0.79343,1.233492 -1.17232,2.584458 -1.38898,4.018827 -0.19254,1.660147 -0.18893,3.334256 -0.19107,5.003017 -0.0771,1.487017 0.0301,2.930636 0.32054,4.385487 0.32216,1.051894 1.14671,1.870157 2.09532,2.390717 1.28151,0.340299 2.57993,0.652005 3.88613,0.910402 1.43985,0.182417 2.86468,0.236569 4.17108,0.920711 1.10422,0.524917 1.89924,1.572887 2.62588,2.534552 0.98943,1.004498 1.71959,2.177605 2.22178,3.488131 0.51723,1.616851 0.52763,3.330115 0.57062,5.010907 0.0546,1.5504 0.0843,3.082996 -0.31079,4.59128 -0.39849,1.314829 -1.43563,2.182532 -2.33004,3.160281 -3.9542,3.942247 -9.15242,6.418374 -14.27946,8.544484 -1.9176,0.4139 -3.53988,1.48883 -5.32705,2.21745 -9.3347,5.3195 30.8774,-17.633758 -2.43379,1.3982 -3.01302,1.72145 6.01119,-3.46887 9.02802,-5.18364 0.18768,-0.10668 -0.35953,0.23909 -0.53929,0.35864 -0.99273,0.58179 -1.75551,1.45888 -2.72127,2.07365 -0.86873,0.60789 -1.41368,1.59378 -1.8025,2.56125 -0.35085,1.24927 -0.48465,2.57715 -0.381,3.87059 0.26733,0.98954 1.05418,1.62527 1.70891,2.35627 0.89828,1.06278 1.84476,2.09595 2.57164,3.28622 0.59155,1.0561 1.31849,1.77552 2.38046,2.34176 1.52227,0.61371 3.08666,1.19383 4.57233,1.89918 1.23538,0.52464 2.37371,1.29842 3.32882,2.23992 0.67444,0.86428 1.25508,1.808 2.01893,2.59755 0.62184,0.79632 1.48518,1.43459 2.41714,1.82671 1.48086,0.6915 2.57472,1.82745 3.34429,3.24609 0.73979,1.63479 0.91216,3.41884 1.01063,5.18764 0.0588,1.55432 0.0414,3.1102 0.034,4.66525 0.0745,1.47862 -0.0511,2.88877 -0.6354,4.25434 -0.44144,0.7407 -0.90328,1.52554 -1.67086,1.97755 -10.02292,5.90225 -6.46559,4.71697 -10.8689,6.11673 -3.47205,1.76874 -7.84507,4.35201 7.92863,-4.60469 0.17151,-0.0974 -0.33447,0.20914 -0.50244,0.31253 -0.82179,0.50579 -0.28577,0.15686 -1.1343,0.73062 -1.12915,0.73445 -2.14524,1.61573 -3.20402,2.44186 -1.02622,0.5751 -1.85892,1.25453 -2.53126,2.21581 -0.75788,1.00181 -1.18702,2.15507 -1.69401,3.2872 -0.55659,1.17396 -0.68348,2.46076 -0.77039,3.73874 -0.0726,1.34186 -0.53894,2.59404 -0.94775,3.85636 -0.35827,1.4763 -0.57601,2.97985 -0.88889,4.46764 -0.31336,1.47242 -0.40321,2.97568 -0.45683,4.47588 0.0242,1.38163 -0.21681,2.80163 0.19583,4.14028 0.4004,1.08509 1.11385,2.04466 1.94159,2.84434 0.86844,0.8463 1.58918,1.83874 2.49107,2.65207 1.10332,0.65291 2.35117,1.13217 3.58665,1.49398 1.30293,0.70194 2.63995,1.39919 3.90391,2.17992 1.40285,0.53048 2.44143,1.44035 3.51988,2.43952 0.91794,0.90653 1.24599,2.1842 1.93665,3.24162 0.81162,0.67151 1.34515,1.59384 2.07331,2.34438 0.8018,1.00003 1.69435,1.84859 2.28688,2.99927 0.58627,1.37861 0.65804,2.88115 0.71398,4.35706 0.0297,1.49507 -0.48686,2.86827 -1.02695,4.23263 -0.44344,1.08282 -1.18909,1.96276 -1.92112,2.85426 -0.83353,0.8489 -1.50012,1.86212 -2.16326,2.84876 -0.75968,1.18225 -1.18789,2.46863 -1.53686,3.81522 -0.39108,1.18502 -0.65803,2.39532 -1.12938,3.55259 -0.472,1.01606 -1.23851,1.81798 -1.96033,2.6536 -3.19658,2.85975 -8.72397,5.28383 -11.42007,6.8259 -3.05257,1.74597 6.09875,-3.50312 9.15444,-5.24363 0.15923,-0.0907 -0.30972,0.19595 -0.46457,0.29393 -0.60726,0.6642 -1.17682,1.35342 -1.6754,2.10214 0,0 -10.22652,4.56623 -10.22652,4.56623 v 0 c 0.40954,-0.85708 0.90849,-1.61304 1.56114,-2.3083 2.15396,-3.97724 0.52654,-1.22514 10.42336,-6.42044 3.11089,-1.63305 -6.07645,3.52916 -9.11199,5.29837 -0.92436,0.53874 2.18591,-1.477 1.36984,-0.83847 0.82075,-0.63581 1.52196,-1.4929 2.09672,-2.34679 0.75655,-0.98251 0.83988,-2.21392 1.23985,-3.35761 0.51624,-1.3179 0.55231,-2.82211 1.47049,-3.98614 0.4594,-1.17753 1.3703,-2.06511 1.99197,-3.15958 0.84485,-0.67239 1.55279,-1.59218 2.08056,-2.52616 0.70251,-1.11281 1.09655,-2.44979 1.28942,-3.74329 -0.0315,-1.31458 -0.0391,-2.66444 -0.49868,-3.91395 -0.52855,-1.05723 -1.42691,-1.7985 -2.14624,-2.72318 -0.73677,-0.8301 -1.3879,-1.73149 -2.17153,-2.52073 -0.6181,-0.99353 -0.94729,-2.1613 -1.77518,-3.00944 -1.00604,-0.95399 -2.11604,-1.64387 -3.36822,-2.24637 -1.23696,-0.69956 -2.47031,-1.45285 -3.795,-1.9648 -1.33902,-0.49526 -2.73017,-0.98033 -3.83792,-1.90696 -0.88609,-0.85631 -1.68466,-1.7985 -2.5424,-2.68246 -0.89429,-0.9673 -1.70864,-2.03774 -2.17419,-3.28176 -0.53722,-1.46015 -0.39139,-2.9691 -0.36855,-4.50493 0.0374,-1.55478 0.097,-3.1145 0.37623,-4.64829 0.29561,-1.51579 0.63295,-3.01136 0.83775,-4.54327 0.31401,-1.23189 0.83843,-2.36797 1.06082,-3.62842 0.0543,-1.37709 0.11685,-2.77552 0.57673,-4.08867 0.15376,-0.36539 0.36498,-0.70535 0.51103,-1.0739 0.32265,-0.81417 0.47665,-1.68809 1.13782,-2.33436 0.55774,-1.1629 1.19479,-2.05479 2.3151,-2.7178 1.22643,-0.59526 2.06161,-1.70718 3.25432,-2.36699 3.86434,-3.12839 8.40018,-5.44571 12.91667,-7.50486 3.66969,-1.90008 1.11438,-0.59007 -8.36241,4.91984 -1.24123,0.72166 1.23474,-0.70295 1.50036,-1.01212 0.13678,-0.1592 0.23501,-0.34783 0.35251,-0.52174 0.89167,-1.05972 0.96381,-2.38568 0.91222,-3.72561 0.009,-1.53988 0.0282,-3.08003 2.5e-4,-4.61981 -0.054,-1.60561 -0.13012,-3.24179 -0.76236,-4.7431 -0.68744,-1.24461 -1.72912,-2.08408 -3.03587,-2.64219 -0.99053,-0.56972 -1.9369,-1.25404 -2.63911,-2.16727 -0.70668,-0.80505 -1.31025,-1.68736 -1.97115,-2.52926 -0.91859,-0.81435 -1.94672,-1.4905 -3.08675,-1.95663 -1.55282,-0.66702 -3.12767,-1.28348 -4.66683,-1.98318 -1.14116,-0.73393 -2.00888,-1.61121 -2.66433,-2.81066 -0.68751,-1.13055 -1.60083,-2.10645 -2.48308,-3.08675 -0.83434,-0.8923 -1.66988,-1.77101 -2.03158,-2.97484 -0.21406,-1.41966 -0.0557,-2.87521 0.16076,-4.28872 0.28057,-1.18148 0.83862,-2.20613 1.51164,-3.20486 0.92251,-0.79152 -0.0937,0.014 0.92779,-0.59986 0.67243,-0.40408 1.1371,-1.11052 1.7806,-1.55888 3.53613,-2.13252 7.19481,-4.06126 10.69023,-6.259892 2.9249,-1.839786 -11.98065,6.891902 -8.9716,5.193222 3.41623,-1.92855 6.79297,-3.92625 10.19321,-5.882853 0.58743,-0.338024 0.62076,-0.336593 1.24965,-0.629817 1.72344,-0.829231 3.47541,-1.534298 5.28051,-2.169292 3.60823,-1.635572 8.75476,-4.944716 -6.66991,4.08287 -0.84224,0.492932 2.78872,-1.676374 1.88074,-1.44703 1.2623,-1.137568 -0.22789,0.254883 0.97078,-1.03119 0.52478,-0.563047 1.25709,-0.935254 1.52472,-1.699321 0.74773,-1.277845 0.54428,-2.788108 0.55321,-4.213976 -0.022,-1.560425 -0.015,-3.148095 -0.42274,-4.666126 -0.4335,-1.225907 -1.17335,-2.239928 -2.06374,-3.183241 -0.65759,-0.820664 -1.32459,-1.678215 -2.33537,-2.060001 -1.30422,-0.439015 -2.6779,-0.455761 -4.01631,-0.748649 -1.39848,-0.319358 -2.8679,-0.526135 -4.13346,-1.232038 -1.11784,-0.806664 -2.11419,-1.830673 -2.54364,-3.170706 -0.30527,-1.529707 -0.50704,-3.033659 -0.38561,-4.602109 0.003,-1.706639 -0.024,-3.417073 0.11087,-5.119698 0.15851,-1.49656 0.34741,-3.086537 1.20828,-4.361164 0.58483,-1.398093 1.52612,-2.450584 2.65037,-3.450154 4.72645,-3.46516 9.61962,-6.872194 15.45986,-7.546176 0,0 -8.97837,6.719867 -8.97837,6.719867 z"
       inkscape:connector-curvature="0" />
  </g>
</svg>
